<?xml version="1.0" encoding="utf-8"?>
<!-- Generator: Adobe Illustrator 17.0.0, SVG Export Plug-In . SVG Version: 6.00 Build 0)  -->
<!DOCTYPE svg PUBLIC "-//W3C//DTD SVG 1.1 Tiny//EN" "http://www.w3.org/Graphics/SVG/1.1/DTD/svg11-tiny.dtd">
<svg version="1.1" baseProfile="tiny" id="All_glyphs"
	 xmlns="http://www.w3.org/2000/svg" xmlns:xlink="http://www.w3.org/1999/xlink" x="0px" y="0px" width="25.308px" height="28px"
	 viewBox="0 0 25.308 28" xml:space="preserve">
<g>
	<path d="M24.362,22.485L16.937,14l7.424-8.485c1.261-1.262,1.261-3.308,0-4.569c-1.263-1.261-3.308-1.261-4.569,0l-7.138,8.158
		L5.516,0.946c-1.261-1.261-3.307-1.262-4.569,0c-1.261,1.262-1.261,3.307,0,4.569L8.37,14l-7.424,8.484
		c-1.261,1.261-1.261,3.307-0.001,4.569c1.262,1.262,3.308,1.262,4.57,0l7.138-8.159l7.138,8.159c1.263,1.262,3.308,1.262,4.57,0
		C25.623,25.791,25.623,23.746,24.362,22.485z"/>
</g>
</svg>
